{"asset":{"generator":"3D Builder","version":"2.0"},"scene":0,"scenes":[{"nodes":[0]}],"nodes":[{"mesh":0,"matrix":[1,0,0,0,0,-1.1920928955078125E-7,-0.99999988079071045,0,0,0.99999988079071045,-1.1920928955078125E-7,0,-4.7962189455574844E-6,-0.00023596797836944461,0.021695200353860855,1]}],"meshes":[{"primitives":[{"attributes":{"POSITION":0,"TEXCOORD_0":1},"mode":4,"indices":2,"material":0}]}],"materials":[{"pbrMetallicRoughness":{"baseColorFactor":[1,1,1,1],"metallicFactor":1,"roughnessFactor":1,"baseColorTexture":{"index":0,"texCoord":0},"metallicRoughnessTexture":{"index":1,"texCoord":0}},"alphaMode":"OPAQUE"}],"textures":[{"source":0,"sampler":0},{"source":1,"sampler":0}],"images":[{"uri":"3124867681_2048x1024_6195987693227547908.png"},{"uri":"2341980809_2048x1024_17319628118832143767.png"}],"samplers":[{"magFilter":9729,"wrapS":10497,"wrapT":10497}],"accessors":[{"bufferView":0,"byteOffset":0,"count":14983,"componentType":5126,"type":"VEC3","min":[-0.15893727540969849,-0.08572368323802948,0.00023597059771418571],"max":[0.15894687175750732,0.12911409139633179,0.21997515857219696]},{"bufferView":1,"byteOffset":0,"count":14983,"componentType":5126,"type":"VEC2"},{"bufferView":2,"byteOffset":0,"count":58062,"componentType":5125,"type":"SCALAR"}],"bufferViews":[{"buffer":0,"byteOffset":0,"byteLength":179796,"byteStride":12,"target":34962},{"buffer":0,"byteOffset":179796,"byteLength":119864,"byteStride":8,"target":34962},{"buffer":0,"byteOffset":299660,"byteLength":232248,"target":34963}],"buffers":[{"byteLength":531908,"uri":"scene.bin"}]}